<?xml version="1.0" standalone="no"?>
<svg xmlns="http://www.w3.org/2000/svg" version="1.1" width="296" height="296">
	<!-- Created with https://api.qrserver.com (QR Code API, see goQR.me/api for information) -->
	<title>QR Code</title>
	<desc>GitHub: https://github.com/toxicbishop
LinkedIn: https://www.linkedin.com/in/pranav-arun</desc>
	<rect style="fill:transparent" x="0" y="0" width="296" height="296" />
	<g id="elements">
		<path style="fill:currentColor" d="M 0,0 l 8,0 0,8 -8,0 z M 8,0 l 8,0 0,8 -8,0 z M 16,0 l 8,0 0,8 -8,0 z M 24,0 l 8,0 0,8 -8,0 z M 32,0 l 8,0 0,8 -8,0 z M 40,0 l 8,0 0,8 -8,0 z M 48,0 l 8,0 0,8 -8,0 z M 80,0 l 8,0 0,8 -8,0 z M 96,0 l 8,0 0,8 -8,0 z M 112,0 l 8,0 0,8 -8,0 z M 128,0 l 8,0 0,8 -8,0 z M 136,0 l 8,0 0,8 -8,0 z M 144,0 l 8,0 0,8 -8,0 z M 152,0 l 8,0 0,8 -8,0 z M 160,0 l 8,0 0,8 -8,0 z M 168,0 l 8,0 0,8 -8,0 z M 176,0 l 8,0 0,8 -8,0 z M 184,0 l 8,0 0,8 -8,0 z M 224,0 l 8,0 0,8 -8,0 z M 240,0 l 8,0 0,8 -8,0 z M 248,0 l 8,0 0,8 -8,0 z M 256,0 l 8,0 0,8 -8,0 z M 264,0 l 8,0 0,8 -8,0 z M 272,0 l 8,0 0,8 -8,0 z M 280,0 l 8,0 0,8 -8,0 z M 288,0 l 8,0 0,8 -8,0 z M 0,8 l 8,0 0,8 -8,0 z M 48,8 l 8,0 0,8 -8,0 z M 64,8 l 8,0 0,8 -8,0 z M 80,8 l 8,0 0,8 -8,0 z M 112,8 l 8,0 0,8 -8,0 z M 120,8 l 8,0 0,8 -8,0 z M 136,8 l 8,0 0,8 -8,0 z M 160,8 l 8,0 0,8 -8,0 z M 168,8 l 8,0 0,8 -8,0 z M 176,8 l 8,0 0,8 -8,0 z M 192,8 l 8,0 0,8 -8,0 z M 200,8 l 8,0 0,8 -8,0 z M 216,8 l 8,0 0,8 -8,0 z M 224,8 l 8,0 0,8 -8,0 z M 240,8 l 8,0 0,8 -8,0 z M 288,8 l 8,0 0,8 -8,0 z M 0,16 l 8,0 0,8 -8,0 z M 16,16 l 8,0 0,8 -8,0 z M 24,16 l 8,0 0,8 -8,0 z M 32,16 l 8,0 0,8 -8,0 z M 48,16 l 8,0 0,8 -8,0 z M 96,16 l 8,0 0,8 -8,0 z M 112,16 l 8,0 0,8 -8,0 z M 144,16 l 8,0 0,8 -8,0 z M 168,16 l 8,0 0,8 -8,0 z M 192,16 l 8,0 0,8 -8,0 z M 240,16 l 8,0 0,8 -8,0 z M 256,16 l 8,0 0,8 -8,0 z M 264,16 l 8,0 0,8 -8,0 z M 272,16 l 8,0 0,8 -8,0 z M 288,16 l 8,0 0,8 -8,0 z M 0,24 l 8,0 0,8 -8,0 z M 16,24 l 8,0 0,8 -8,0 z M 24,24 l 8,0 0,8 -8,0 z M 32,24 l 8,0 0,8 -8,0 z M 48,24 l 8,0 0,8 -8,0 z M 64,24 l 8,0 0,8 -8,0 z M 72,24 l 8,0 0,8 -8,0 z M 80,24 l 8,0 0,8 -8,0 z M 96,24 l 8,0 0,8 -8,0 z M 104,24 l 8,0 0,8 -8,0 z M 112,24 l 8,0 0,8 -8,0 z M 120,24 l 8,0 0,8 -8,0 z M 128,24 l 8,0 0,8 -8,0 z M 136,24 l 8,0 0,8 -8,0 z M 144,24 l 8,0 0,8 -8,0 z M 152,24 l 8,0 0,8 -8,0 z M 176,24 l 8,0 0,8 -8,0 z M 184,24 l 8,0 0,8 -8,0 z M 192,24 l 8,0 0,8 -8,0 z M 200,24 l 8,0 0,8 -8,0 z M 208,24 l 8,0 0,8 -8,0 z M 216,24 l 8,0 0,8 -8,0 z M 240,24 l 8,0 0,8 -8,0 z M 256,24 l 8,0 0,8 -8,0 z M 264,24 l 8,0 0,8 -8,0 z M 272,24 l 8,0 0,8 -8,0 z M 288,24 l 8,0 0,8 -8,0 z M 0,32 l 8,0 0,8 -8,0 z M 16,32 l 8,0 0,8 -8,0 z M 24,32 l 8,0 0,8 -8,0 z M 32,32 l 8,0 0,8 -8,0 z M 48,32 l 8,0 0,8 -8,0 z M 72,32 l 8,0 0,8 -8,0 z M 104,32 l 8,0 0,8 -8,0 z M 128,32 l 8,0 0,8 -8,0 z M 136,32 l 8,0 0,8 -8,0 z M 144,32 l 8,0 0,8 -8,0 z M 152,32 l 8,0 0,8 -8,0 z M 160,32 l 8,0 0,8 -8,0 z M 168,32 l 8,0 0,8 -8,0 z M 176,32 l 8,0 0,8 -8,0 z M 184,32 l 8,0 0,8 -8,0 z M 200,32 l 8,0 0,8 -8,0 z M 224,32 l 8,0 0,8 -8,0 z M 240,32 l 8,0 0,8 -8,0 z M 256,32 l 8,0 0,8 -8,0 z M 264,32 l 8,0 0,8 -8,0 z M 272,32 l 8,0 0,8 -8,0 z M 288,32 l 8,0 0,8 -8,0 z M 0,40 l 8,0 0,8 -8,0 z M 48,40 l 8,0 0,8 -8,0 z M 64,40 l 8,0 0,8 -8,0 z M 72,40 l 8,0 0,8 -8,0 z M 88,40 l 8,0 0,8 -8,0 z M 96,40 l 8,0 0,8 -8,0 z M 104,40 l 8,0 0,8 -8,0 z M 112,40 l 8,0 0,8 -8,0 z M 120,40 l 8,0 0,8 -8,0 z M 128,40 l 8,0 0,8 -8,0 z M 136,40 l 8,0 0,8 -8,0 z M 168,40 l 8,0 0,8 -8,0 z M 176,40 l 8,0 0,8 -8,0 z M 192,40 l 8,0 0,8 -8,0 z M 216,40 l 8,0 0,8 -8,0 z M 224,40 l 8,0 0,8 -8,0 z M 240,40 l 8,0 0,8 -8,0 z M 288,40 l 8,0 0,8 -8,0 z M 0,48 l 8,0 0,8 -8,0 z M 8,48 l 8,0 0,8 -8,0 z M 16,48 l 8,0 0,8 -8,0 z M 24,48 l 8,0 0,8 -8,0 z M 32,48 l 8,0 0,8 -8,0 z M 40,48 l 8,0 0,8 -8,0 z M 48,48 l 8,0 0,8 -8,0 z M 64,48 l 8,0 0,8 -8,0 z M 80,48 l 8,0 0,8 -8,0 z M 96,48 l 8,0 0,8 -8,0 z M 112,48 l 8,0 0,8 -8,0 z M 128,48 l 8,0 0,8 -8,0 z M 144,48 l 8,0 0,8 -8,0 z M 160,48 l 8,0 0,8 -8,0 z M 176,48 l 8,0 0,8 -8,0 z M 192,48 l 8,0 0,8 -8,0 z M 208,48 l 8,0 0,8 -8,0 z M 224,48 l 8,0 0,8 -8,0 z M 240,48 l 8,0 0,8 -8,0 z M 248,48 l 8,0 0,8 -8,0 z M 256,48 l 8,0 0,8 -8,0 z M 264,48 l 8,0 0,8 -8,0 z M 272,48 l 8,0 0,8 -8,0 z M 280,48 l 8,0 0,8 -8,0 z M 288,48 l 8,0 0,8 -8,0 z M 72,56 l 8,0 0,8 -8,0 z M 80,56 l 8,0 0,8 -8,0 z M 88,56 l 8,0 0,8 -8,0 z M 120,56 l 8,0 0,8 -8,0 z M 144,56 l 8,0 0,8 -8,0 z M 160,56 l 8,0 0,8 -8,0 z M 168,56 l 8,0 0,8 -8,0 z M 192,56 l 8,0 0,8 -8,0 z M 208,56 l 8,0 0,8 -8,0 z M 216,56 l 8,0 0,8 -8,0 z M 0,64 l 8,0 0,8 -8,0 z M 8,64 l 8,0 0,8 -8,0 z M 16,64 l 8,0 0,8 -8,0 z M 24,64 l 8,0 0,8 -8,0 z M 32,64 l 8,0 0,8 -8,0 z M 48,64 l 8,0 0,8 -8,0 z M 56,64 l 8,0 0,8 -8,0 z M 64,64 l 8,0 0,8 -8,0 z M 72,64 l 8,0 0,8 -8,0 z M 88,64 l 8,0 0,8 -8,0 z M 120,64 l 8,0 0,8 -8,0 z M 136,64 l 8,0 0,8 -8,0 z M 176,64 l 8,0 0,8 -8,0 z M 192,64 l 8,0 0,8 -8,0 z M 200,64 l 8,0 0,8 -8,0 z M 208,64 l 8,0 0,8 -8,0 z M 232,64 l 8,0 0,8 -8,0 z M 248,64 l 8,0 0,8 -8,0 z M 264,64 l 8,0 0,8 -8,0 z M 280,64 l 8,0 0,8 -8,0 z M 0,72 l 8,0 0,8 -8,0 z M 8,72 l 8,0 0,8 -8,0 z M 16,72 l 8,0 0,8 -8,0 z M 40,72 l 8,0 0,8 -8,0 z M 64,72 l 8,0 0,8 -8,0 z M 72,72 l 8,0 0,8 -8,0 z M 80,72 l 8,0 0,8 -8,0 z M 96,72 l 8,0 0,8 -8,0 z M 104,72 l 8,0 0,8 -8,0 z M 128,72 l 8,0 0,8 -8,0 z M 144,72 l 8,0 0,8 -8,0 z M 152,72 l 8,0 0,8 -8,0 z M 160,72 l 8,0 0,8 -8,0 z M 168,72 l 8,0 0,8 -8,0 z M 176,72 l 8,0 0,8 -8,0 z M 184,72 l 8,0 0,8 -8,0 z M 192,72 l 8,0 0,8 -8,0 z M 208,72 l 8,0 0,8 -8,0 z M 224,72 l 8,0 0,8 -8,0 z M 232,72 l 8,0 0,8 -8,0 z M 248,72 l 8,0 0,8 -8,0 z M 264,72 l 8,0 0,8 -8,0 z M 8,80 l 8,0 0,8 -8,0 z M 16,80 l 8,0 0,8 -8,0 z M 24,80 l 8,0 0,8 -8,0 z M 40,80 l 8,0 0,8 -8,0 z M 48,80 l 8,0 0,8 -8,0 z M 56,80 l 8,0 0,8 -8,0 z M 64,80 l 8,0 0,8 -8,0 z M 72,80 l 8,0 0,8 -8,0 z M 80,80 l 8,0 0,8 -8,0 z M 104,80 l 8,0 0,8 -8,0 z M 112,80 l 8,0 0,8 -8,0 z M 120,80 l 8,0 0,8 -8,0 z M 128,80 l 8,0 0,8 -8,0 z M 136,80 l 8,0 0,8 -8,0 z M 144,80 l 8,0 0,8 -8,0 z M 160,80 l 8,0 0,8 -8,0 z M 168,80 l 8,0 0,8 -8,0 z M 192,80 l 8,0 0,8 -8,0 z M 200,80 l 8,0 0,8 -8,0 z M 216,80 l 8,0 0,8 -8,0 z M 232,80 l 8,0 0,8 -8,0 z M 240,80 l 8,0 0,8 -8,0 z M 248,80 l 8,0 0,8 -8,0 z M 264,80 l 8,0 0,8 -8,0 z M 272,80 l 8,0 0,8 -8,0 z M 280,80 l 8,0 0,8 -8,0 z M 288,80 l 8,0 0,8 -8,0 z M 8,88 l 8,0 0,8 -8,0 z M 16,88 l 8,0 0,8 -8,0 z M 24,88 l 8,0 0,8 -8,0 z M 40,88 l 8,0 0,8 -8,0 z M 56,88 l 8,0 0,8 -8,0 z M 72,88 l 8,0 0,8 -8,0 z M 80,88 l 8,0 0,8 -8,0 z M 96,88 l 8,0 0,8 -8,0 z M 104,88 l 8,0 0,8 -8,0 z M 120,88 l 8,0 0,8 -8,0 z M 128,88 l 8,0 0,8 -8,0 z M 160,88 l 8,0 0,8 -8,0 z M 168,88 l 8,0 0,8 -8,0 z M 184,88 l 8,0 0,8 -8,0 z M 192,88 l 8,0 0,8 -8,0 z M 208,88 l 8,0 0,8 -8,0 z M 216,88 l 8,0 0,8 -8,0 z M 240,88 l 8,0 0,8 -8,0 z M 256,88 l 8,0 0,8 -8,0 z M 264,88 l 8,0 0,8 -8,0 z M 280,88 l 8,0 0,8 -8,0 z M 288,88 l 8,0 0,8 -8,0 z M 8,96 l 8,0 0,8 -8,0 z M 16,96 l 8,0 0,8 -8,0 z M 48,96 l 8,0 0,8 -8,0 z M 64,96 l 8,0 0,8 -8,0 z M 72,96 l 8,0 0,8 -8,0 z M 80,96 l 8,0 0,8 -8,0 z M 96,96 l 8,0 0,8 -8,0 z M 112,96 l 8,0 0,8 -8,0 z M 136,96 l 8,0 0,8 -8,0 z M 176,96 l 8,0 0,8 -8,0 z M 184,96 l 8,0 0,8 -8,0 z M 200,96 l 8,0 0,8 -8,0 z M 208,96 l 8,0 0,8 -8,0 z M 224,96 l 8,0 0,8 -8,0 z M 232,96 l 8,0 0,8 -8,0 z M 240,96 l 8,0 0,8 -8,0 z M 256,96 l 8,0 0,8 -8,0 z M 272,96 l 8,0 0,8 -8,0 z M 280,96 l 8,0 0,8 -8,0 z M 288,96 l 8,0 0,8 -8,0 z M 0,104 l 8,0 0,8 -8,0 z M 24,104 l 8,0 0,8 -8,0 z M 32,104 l 8,0 0,8 -8,0 z M 64,104 l 8,0 0,8 -8,0 z M 136,104 l 8,0 0,8 -8,0 z M 144,104 l 8,0 0,8 -8,0 z M 152,104 l 8,0 0,8 -8,0 z M 160,104 l 8,0 0,8 -8,0 z M 168,104 l 8,0 0,8 -8,0 z M 176,104 l 8,0 0,8 -8,0 z M 184,104 l 8,0 0,8 -8,0 z M 192,104 l 8,0 0,8 -8,0 z M 200,104 l 8,0 0,8 -8,0 z M 224,104 l 8,0 0,8 -8,0 z M 248,104 l 8,0 0,8 -8,0 z M 264,104 l 8,0 0,8 -8,0 z M 272,104 l 8,0 0,8 -8,0 z M 280,104 l 8,0 0,8 -8,0 z M 0,112 l 8,0 0,8 -8,0 z M 32,112 l 8,0 0,8 -8,0 z M 48,112 l 8,0 0,8 -8,0 z M 72,112 l 8,0 0,8 -8,0 z M 88,112 l 8,0 0,8 -8,0 z M 96,112 l 8,0 0,8 -8,0 z M 120,112 l 8,0 0,8 -8,0 z M 136,112 l 8,0 0,8 -8,0 z M 160,112 l 8,0 0,8 -8,0 z M 192,112 l 8,0 0,8 -8,0 z M 216,112 l 8,0 0,8 -8,0 z M 224,112 l 8,0 0,8 -8,0 z M 248,112 l 8,0 0,8 -8,0 z M 256,112 l 8,0 0,8 -8,0 z M 264,112 l 8,0 0,8 -8,0 z M 272,112 l 8,0 0,8 -8,0 z M 280,112 l 8,0 0,8 -8,0 z M 288,112 l 8,0 0,8 -8,0 z M 0,120 l 8,0 0,8 -8,0 z M 40,120 l 8,0 0,8 -8,0 z M 56,120 l 8,0 0,8 -8,0 z M 80,120 l 8,0 0,8 -8,0 z M 88,120 l 8,0 0,8 -8,0 z M 112,120 l 8,0 0,8 -8,0 z M 128,120 l 8,0 0,8 -8,0 z M 152,120 l 8,0 0,8 -8,0 z M 168,120 l 8,0 0,8 -8,0 z M 176,120 l 8,0 0,8 -8,0 z M 184,120 l 8,0 0,8 -8,0 z M 224,120 l 8,0 0,8 -8,0 z M 240,120 l 8,0 0,8 -8,0 z M 248,120 l 8,0 0,8 -8,0 z M 264,120 l 8,0 0,8 -8,0 z M 288,120 l 8,0 0,8 -8,0 z M 16,128 l 8,0 0,8 -8,0 z M 48,128 l 8,0 0,8 -8,0 z M 56,128 l 8,0 0,8 -8,0 z M 72,128 l 8,0 0,8 -8,0 z M 88,128 l 8,0 0,8 -8,0 z M 120,128 l 8,0 0,8 -8,0 z M 128,128 l 8,0 0,8 -8,0 z M 136,128 l 8,0 0,8 -8,0 z M 152,128 l 8,0 0,8 -8,0 z M 184,128 l 8,0 0,8 -8,0 z M 192,128 l 8,0 0,8 -8,0 z M 200,128 l 8,0 0,8 -8,0 z M 208,128 l 8,0 0,8 -8,0 z M 232,128 l 8,0 0,8 -8,0 z M 240,128 l 8,0 0,8 -8,0 z M 256,128 l 8,0 0,8 -8,0 z M 264,128 l 8,0 0,8 -8,0 z M 272,128 l 8,0 0,8 -8,0 z M 0,136 l 8,0 0,8 -8,0 z M 8,136 l 8,0 0,8 -8,0 z M 72,136 l 8,0 0,8 -8,0 z M 80,136 l 8,0 0,8 -8,0 z M 96,136 l 8,0 0,8 -8,0 z M 104,136 l 8,0 0,8 -8,0 z M 112,136 l 8,0 0,8 -8,0 z M 128,136 l 8,0 0,8 -8,0 z M 136,136 l 8,0 0,8 -8,0 z M 144,136 l 8,0 0,8 -8,0 z M 152,136 l 8,0 0,8 -8,0 z M 160,136 l 8,0 0,8 -8,0 z M 176,136 l 8,0 0,8 -8,0 z M 184,136 l 8,0 0,8 -8,0 z M 200,136 l 8,0 0,8 -8,0 z M 224,136 l 8,0 0,8 -8,0 z M 232,136 l 8,0 0,8 -8,0 z M 248,136 l 8,0 0,8 -8,0 z M 264,136 l 8,0 0,8 -8,0 z M 288,136 l 8,0 0,8 -8,0 z M 24,144 l 8,0 0,8 -8,0 z M 32,144 l 8,0 0,8 -8,0 z M 48,144 l 8,0 0,8 -8,0 z M 56,144 l 8,0 0,8 -8,0 z M 104,144 l 8,0 0,8 -8,0 z M 112,144 l 8,0 0,8 -8,0 z M 120,144 l 8,0 0,8 -8,0 z M 128,144 l 8,0 0,8 -8,0 z M 200,144 l 8,0 0,8 -8,0 z M 208,144 l 8,0 0,8 -8,0 z M 216,144 l 8,0 0,8 -8,0 z M 232,144 l 8,0 0,8 -8,0 z M 240,144 l 8,0 0,8 -8,0 z M 248,144 l 8,0 0,8 -8,0 z M 256,144 l 8,0 0,8 -8,0 z M 264,144 l 8,0 0,8 -8,0 z M 280,144 l 8,0 0,8 -8,0 z M 288,144 l 8,0 0,8 -8,0 z M 24,152 l 8,0 0,8 -8,0 z M 40,152 l 8,0 0,8 -8,0 z M 56,152 l 8,0 0,8 -8,0 z M 72,152 l 8,0 0,8 -8,0 z M 96,152 l 8,0 0,8 -8,0 z M 104,152 l 8,0 0,8 -8,0 z M 120,152 l 8,0 0,8 -8,0 z M 152,152 l 8,0 0,8 -8,0 z M 160,152 l 8,0 0,8 -8,0 z M 168,152 l 8,0 0,8 -8,0 z M 192,152 l 8,0 0,8 -8,0 z M 208,152 l 8,0 0,8 -8,0 z M 216,152 l 8,0 0,8 -8,0 z M 224,152 l 8,0 0,8 -8,0 z M 232,152 l 8,0 0,8 -8,0 z M 240,152 l 8,0 0,8 -8,0 z M 248,152 l 8,0 0,8 -8,0 z M 256,152 l 8,0 0,8 -8,0 z M 288,152 l 8,0 0,8 -8,0 z M 0,160 l 8,0 0,8 -8,0 z M 16,160 l 8,0 0,8 -8,0 z M 24,160 l 8,0 0,8 -8,0 z M 40,160 l 8,0 0,8 -8,0 z M 48,160 l 8,0 0,8 -8,0 z M 64,160 l 8,0 0,8 -8,0 z M 72,160 l 8,0 0,8 -8,0 z M 96,160 l 8,0 0,8 -8,0 z M 112,160 l 8,0 0,8 -8,0 z M 120,160 l 8,0 0,8 -8,0 z M 136,160 l 8,0 0,8 -8,0 z M 144,160 l 8,0 0,8 -8,0 z M 152,160 l 8,0 0,8 -8,0 z M 184,160 l 8,0 0,8 -8,0 z M 192,160 l 8,0 0,8 -8,0 z M 200,160 l 8,0 0,8 -8,0 z M 208,160 l 8,0 0,8 -8,0 z M 216,160 l 8,0 0,8 -8,0 z M 224,160 l 8,0 0,8 -8,0 z M 232,160 l 8,0 0,8 -8,0 z M 240,160 l 8,0 0,8 -8,0 z M 256,160 l 8,0 0,8 -8,0 z M 264,160 l 8,0 0,8 -8,0 z M 272,160 l 8,0 0,8 -8,0 z M 280,160 l 8,0 0,8 -8,0 z M 288,160 l 8,0 0,8 -8,0 z M 16,168 l 8,0 0,8 -8,0 z M 40,168 l 8,0 0,8 -8,0 z M 72,168 l 8,0 0,8 -8,0 z M 128,168 l 8,0 0,8 -8,0 z M 136,168 l 8,0 0,8 -8,0 z M 144,168 l 8,0 0,8 -8,0 z M 152,168 l 8,0 0,8 -8,0 z M 160,168 l 8,0 0,8 -8,0 z M 208,168 l 8,0 0,8 -8,0 z M 224,168 l 8,0 0,8 -8,0 z M 264,168 l 8,0 0,8 -8,0 z M 272,168 l 8,0 0,8 -8,0 z M 280,168 l 8,0 0,8 -8,0 z M 0,176 l 8,0 0,8 -8,0 z M 16,176 l 8,0 0,8 -8,0 z M 24,176 l 8,0 0,8 -8,0 z M 48,176 l 8,0 0,8 -8,0 z M 72,176 l 8,0 0,8 -8,0 z M 80,176 l 8,0 0,8 -8,0 z M 88,176 l 8,0 0,8 -8,0 z M 96,176 l 8,0 0,8 -8,0 z M 120,176 l 8,0 0,8 -8,0 z M 136,176 l 8,0 0,8 -8,0 z M 160,176 l 8,0 0,8 -8,0 z M 176,176 l 8,0 0,8 -8,0 z M 192,176 l 8,0 0,8 -8,0 z M 216,176 l 8,0 0,8 -8,0 z M 224,176 l 8,0 0,8 -8,0 z M 240,176 l 8,0 0,8 -8,0 z M 248,176 l 8,0 0,8 -8,0 z M 256,176 l 8,0 0,8 -8,0 z M 264,176 l 8,0 0,8 -8,0 z M 280,176 l 8,0 0,8 -8,0 z M 288,176 l 8,0 0,8 -8,0 z M 0,184 l 8,0 0,8 -8,0 z M 16,184 l 8,0 0,8 -8,0 z M 32,184 l 8,0 0,8 -8,0 z M 40,184 l 8,0 0,8 -8,0 z M 64,184 l 8,0 0,8 -8,0 z M 80,184 l 8,0 0,8 -8,0 z M 88,184 l 8,0 0,8 -8,0 z M 112,184 l 8,0 0,8 -8,0 z M 128,184 l 8,0 0,8 -8,0 z M 168,184 l 8,0 0,8 -8,0 z M 176,184 l 8,0 0,8 -8,0 z M 224,184 l 8,0 0,8 -8,0 z M 248,184 l 8,0 0,8 -8,0 z M 256,184 l 8,0 0,8 -8,0 z M 280,184 l 8,0 0,8 -8,0 z M 288,184 l 8,0 0,8 -8,0 z M 8,192 l 8,0 0,8 -8,0 z M 24,192 l 8,0 0,8 -8,0 z M 40,192 l 8,0 0,8 -8,0 z M 48,192 l 8,0 0,8 -8,0 z M 64,192 l 8,0 0,8 -8,0 z M 72,192 l 8,0 0,8 -8,0 z M 88,192 l 8,0 0,8 -8,0 z M 136,192 l 8,0 0,8 -8,0 z M 152,192 l 8,0 0,8 -8,0 z M 192,192 l 8,0 0,8 -8,0 z M 240,192 l 8,0 0,8 -8,0 z M 256,192 l 8,0 0,8 -8,0 z M 272,192 l 8,0 0,8 -8,0 z M 0,200 l 8,0 0,8 -8,0 z M 8,200 l 8,0 0,8 -8,0 z M 24,200 l 8,0 0,8 -8,0 z M 40,200 l 8,0 0,8 -8,0 z M 56,200 l 8,0 0,8 -8,0 z M 64,200 l 8,0 0,8 -8,0 z M 80,200 l 8,0 0,8 -8,0 z M 96,200 l 8,0 0,8 -8,0 z M 104,200 l 8,0 0,8 -8,0 z M 112,200 l 8,0 0,8 -8,0 z M 128,200 l 8,0 0,8 -8,0 z M 136,200 l 8,0 0,8 -8,0 z M 144,200 l 8,0 0,8 -8,0 z M 152,200 l 8,0 0,8 -8,0 z M 160,200 l 8,0 0,8 -8,0 z M 184,200 l 8,0 0,8 -8,0 z M 200,200 l 8,0 0,8 -8,0 z M 0,208 l 8,0 0,8 -8,0 z M 16,208 l 8,0 0,8 -8,0 z M 48,208 l 8,0 0,8 -8,0 z M 56,208 l 8,0 0,8 -8,0 z M 104,208 l 8,0 0,8 -8,0 z M 112,208 l 8,0 0,8 -8,0 z M 120,208 l 8,0 0,8 -8,0 z M 128,208 l 8,0 0,8 -8,0 z M 144,208 l 8,0 0,8 -8,0 z M 176,208 l 8,0 0,8 -8,0 z M 200,208 l 8,0 0,8 -8,0 z M 216,208 l 8,0 0,8 -8,0 z M 224,208 l 8,0 0,8 -8,0 z M 232,208 l 8,0 0,8 -8,0 z M 256,208 l 8,0 0,8 -8,0 z M 264,208 l 8,0 0,8 -8,0 z M 280,208 l 8,0 0,8 -8,0 z M 288,208 l 8,0 0,8 -8,0 z M 0,216 l 8,0 0,8 -8,0 z M 56,216 l 8,0 0,8 -8,0 z M 80,216 l 8,0 0,8 -8,0 z M 96,216 l 8,0 0,8 -8,0 z M 104,216 l 8,0 0,8 -8,0 z M 120,216 l 8,0 0,8 -8,0 z M 160,216 l 8,0 0,8 -8,0 z M 168,216 l 8,0 0,8 -8,0 z M 176,216 l 8,0 0,8 -8,0 z M 216,216 l 8,0 0,8 -8,0 z M 224,216 l 8,0 0,8 -8,0 z M 256,216 l 8,0 0,8 -8,0 z M 280,216 l 8,0 0,8 -8,0 z M 0,224 l 8,0 0,8 -8,0 z M 48,224 l 8,0 0,8 -8,0 z M 80,224 l 8,0 0,8 -8,0 z M 96,224 l 8,0 0,8 -8,0 z M 112,224 l 8,0 0,8 -8,0 z M 120,224 l 8,0 0,8 -8,0 z M 136,224 l 8,0 0,8 -8,0 z M 152,224 l 8,0 0,8 -8,0 z M 176,224 l 8,0 0,8 -8,0 z M 192,224 l 8,0 0,8 -8,0 z M 208,224 l 8,0 0,8 -8,0 z M 224,224 l 8,0 0,8 -8,0 z M 232,224 l 8,0 0,8 -8,0 z M 240,224 l 8,0 0,8 -8,0 z M 248,224 l 8,0 0,8 -8,0 z M 256,224 l 8,0 0,8 -8,0 z M 272,224 l 8,0 0,8 -8,0 z M 280,224 l 8,0 0,8 -8,0 z M 288,224 l 8,0 0,8 -8,0 z M 64,232 l 8,0 0,8 -8,0 z M 80,232 l 8,0 0,8 -8,0 z M 128,232 l 8,0 0,8 -8,0 z M 136,232 l 8,0 0,8 -8,0 z M 144,232 l 8,0 0,8 -8,0 z M 152,232 l 8,0 0,8 -8,0 z M 160,232 l 8,0 0,8 -8,0 z M 168,232 l 8,0 0,8 -8,0 z M 176,232 l 8,0 0,8 -8,0 z M 184,232 l 8,0 0,8 -8,0 z M 200,232 l 8,0 0,8 -8,0 z M 216,232 l 8,0 0,8 -8,0 z M 224,232 l 8,0 0,8 -8,0 z M 256,232 l 8,0 0,8 -8,0 z M 288,232 l 8,0 0,8 -8,0 z M 0,240 l 8,0 0,8 -8,0 z M 8,240 l 8,0 0,8 -8,0 z M 16,240 l 8,0 0,8 -8,0 z M 24,240 l 8,0 0,8 -8,0 z M 32,240 l 8,0 0,8 -8,0 z M 40,240 l 8,0 0,8 -8,0 z M 48,240 l 8,0 0,8 -8,0 z M 64,240 l 8,0 0,8 -8,0 z M 72,240 l 8,0 0,8 -8,0 z M 80,240 l 8,0 0,8 -8,0 z M 88,240 l 8,0 0,8 -8,0 z M 96,240 l 8,0 0,8 -8,0 z M 120,240 l 8,0 0,8 -8,0 z M 136,240 l 8,0 0,8 -8,0 z M 176,240 l 8,0 0,8 -8,0 z M 208,240 l 8,0 0,8 -8,0 z M 224,240 l 8,0 0,8 -8,0 z M 240,240 l 8,0 0,8 -8,0 z M 256,240 l 8,0 0,8 -8,0 z M 264,240 l 8,0 0,8 -8,0 z M 280,240 l 8,0 0,8 -8,0 z M 288,240 l 8,0 0,8 -8,0 z M 0,248 l 8,0 0,8 -8,0 z M 48,248 l 8,0 0,8 -8,0 z M 80,248 l 8,0 0,8 -8,0 z M 88,248 l 8,0 0,8 -8,0 z M 112,248 l 8,0 0,8 -8,0 z M 144,248 l 8,0 0,8 -8,0 z M 152,248 l 8,0 0,8 -8,0 z M 160,248 l 8,0 0,8 -8,0 z M 168,248 l 8,0 0,8 -8,0 z M 176,248 l 8,0 0,8 -8,0 z M 184,248 l 8,0 0,8 -8,0 z M 192,248 l 8,0 0,8 -8,0 z M 224,248 l 8,0 0,8 -8,0 z M 256,248 l 8,0 0,8 -8,0 z M 288,248 l 8,0 0,8 -8,0 z M 0,256 l 8,0 0,8 -8,0 z M 16,256 l 8,0 0,8 -8,0 z M 24,256 l 8,0 0,8 -8,0 z M 32,256 l 8,0 0,8 -8,0 z M 48,256 l 8,0 0,8 -8,0 z M 64,256 l 8,0 0,8 -8,0 z M 80,256 l 8,0 0,8 -8,0 z M 88,256 l 8,0 0,8 -8,0 z M 120,256 l 8,0 0,8 -8,0 z M 128,256 l 8,0 0,8 -8,0 z M 136,256 l 8,0 0,8 -8,0 z M 144,256 l 8,0 0,8 -8,0 z M 152,256 l 8,0 0,8 -8,0 z M 176,256 l 8,0 0,8 -8,0 z M 184,256 l 8,0 0,8 -8,0 z M 192,256 l 8,0 0,8 -8,0 z M 200,256 l 8,0 0,8 -8,0 z M 208,256 l 8,0 0,8 -8,0 z M 216,256 l 8,0 0,8 -8,0 z M 224,256 l 8,0 0,8 -8,0 z M 232,256 l 8,0 0,8 -8,0 z M 240,256 l 8,0 0,8 -8,0 z M 248,256 l 8,0 0,8 -8,0 z M 256,256 l 8,0 0,8 -8,0 z M 272,256 l 8,0 0,8 -8,0 z M 0,264 l 8,0 0,8 -8,0 z M 16,264 l 8,0 0,8 -8,0 z M 24,264 l 8,0 0,8 -8,0 z M 32,264 l 8,0 0,8 -8,0 z M 48,264 l 8,0 0,8 -8,0 z M 64,264 l 8,0 0,8 -8,0 z M 80,264 l 8,0 0,8 -8,0 z M 96,264 l 8,0 0,8 -8,0 z M 104,264 l 8,0 0,8 -8,0 z M 112,264 l 8,0 0,8 -8,0 z M 128,264 l 8,0 0,8 -8,0 z M 136,264 l 8,0 0,8 -8,0 z M 144,264 l 8,0 0,8 -8,0 z M 152,264 l 8,0 0,8 -8,0 z M 168,264 l 8,0 0,8 -8,0 z M 176,264 l 8,0 0,8 -8,0 z M 184,264 l 8,0 0,8 -8,0 z M 200,264 l 8,0 0,8 -8,0 z M 224,264 l 8,0 0,8 -8,0 z M 232,264 l 8,0 0,8 -8,0 z M 240,264 l 8,0 0,8 -8,0 z M 248,264 l 8,0 0,8 -8,0 z M 256,264 l 8,0 0,8 -8,0 z M 264,264 l 8,0 0,8 -8,0 z M 280,264 l 8,0 0,8 -8,0 z M 288,264 l 8,0 0,8 -8,0 z M 0,272 l 8,0 0,8 -8,0 z M 16,272 l 8,0 0,8 -8,0 z M 24,272 l 8,0 0,8 -8,0 z M 32,272 l 8,0 0,8 -8,0 z M 48,272 l 8,0 0,8 -8,0 z M 64,272 l 8,0 0,8 -8,0 z M 72,272 l 8,0 0,8 -8,0 z M 80,272 l 8,0 0,8 -8,0 z M 104,272 l 8,0 0,8 -8,0 z M 112,272 l 8,0 0,8 -8,0 z M 120,272 l 8,0 0,8 -8,0 z M 136,272 l 8,0 0,8 -8,0 z M 160,272 l 8,0 0,8 -8,0 z M 176,272 l 8,0 0,8 -8,0 z M 192,272 l 8,0 0,8 -8,0 z M 224,272 l 8,0 0,8 -8,0 z M 264,272 l 8,0 0,8 -8,0 z M 280,272 l 8,0 0,8 -8,0 z M 288,272 l 8,0 0,8 -8,0 z M 0,280 l 8,0 0,8 -8,0 z M 48,280 l 8,0 0,8 -8,0 z M 64,280 l 8,0 0,8 -8,0 z M 72,280 l 8,0 0,8 -8,0 z M 96,280 l 8,0 0,8 -8,0 z M 104,280 l 8,0 0,8 -8,0 z M 120,280 l 8,0 0,8 -8,0 z M 152,280 l 8,0 0,8 -8,0 z M 160,280 l 8,0 0,8 -8,0 z M 168,280 l 8,0 0,8 -8,0 z M 176,280 l 8,0 0,8 -8,0 z M 184,280 l 8,0 0,8 -8,0 z M 208,280 l 8,0 0,8 -8,0 z M 216,280 l 8,0 0,8 -8,0 z M 224,280 l 8,0 0,8 -8,0 z M 240,280 l 8,0 0,8 -8,0 z M 248,280 l 8,0 0,8 -8,0 z M 256,280 l 8,0 0,8 -8,0 z M 288,280 l 8,0 0,8 -8,0 z M 0,288 l 8,0 0,8 -8,0 z M 8,288 l 8,0 0,8 -8,0 z M 16,288 l 8,0 0,8 -8,0 z M 24,288 l 8,0 0,8 -8,0 z M 32,288 l 8,0 0,8 -8,0 z M 40,288 l 8,0 0,8 -8,0 z M 48,288 l 8,0 0,8 -8,0 z M 64,288 l 8,0 0,8 -8,0 z M 80,288 l 8,0 0,8 -8,0 z M 96,288 l 8,0 0,8 -8,0 z M 112,288 l 8,0 0,8 -8,0 z M 120,288 l 8,0 0,8 -8,0 z M 128,288 l 8,0 0,8 -8,0 z M 136,288 l 8,0 0,8 -8,0 z M 160,288 l 8,0 0,8 -8,0 z M 176,288 l 8,0 0,8 -8,0 z M 184,288 l 8,0 0,8 -8,0 z M 192,288 l 8,0 0,8 -8,0 z M 200,288 l 8,0 0,8 -8,0 z M 208,288 l 8,0 0,8 -8,0 z M 232,288 l 8,0 0,8 -8,0 z M 272,288 l 8,0 0,8 -8,0 z M 280,288 l 8,0 0,8 -8,0 z M 288,288 l 8,0 0,8 -8,0 z " />
	</g>
</svg>
